<svg width="28" height="37" viewBox="0 0 28 37" fill="none" xmlns="http://www.w3.org/2000/svg">
<path d="M14.1406 0.245605C12.3125 0.245605 10.5547 0.620605 8.86719 1.37061C7.20312 2.09717 5.76172 3.08154 4.54297 4.32373C3.32422 5.54248 2.33984 6.99561 1.58984 8.68311C0.863281 10.3706 0.5 12.1284 0.5 13.9565C0.5 14.9878 0.640625 16.0659 0.921875 17.1909C1.20312 18.3159 1.53125 19.3589 1.90625 20.3198C2.28125 21.2808 2.82031 22.3472 3.52344 23.519C4.22656 24.6909 4.84766 25.687 5.38672 26.5073C5.94922 27.3042 6.69922 28.2886 7.63672 29.4604C8.57422 30.6089 9.30078 31.4878 9.81641 32.0972C10.332 32.7065 11.0586 33.5503 11.9961 34.6284C12.2773 34.9565 12.4883 35.1909 12.6289 35.3315C12.6758 35.4019 12.7578 35.4839 12.875 35.5776C12.9922 35.6948 13.2031 35.8354 13.5078 35.9995C13.8125 36.1636 14.1055 36.2456 14.3867 36.2456H14.4922C15.1484 36.2456 15.7344 35.9409 16.25 35.3315C23.75 26.7065 27.5 19.5815 27.5 13.9565C27.5 10.0425 26.3047 6.79639 23.9141 4.21826C21.4297 1.56982 18.1719 0.245605 14.1406 0.245605ZM14.5625 33.8198C14.5391 33.8667 14.4922 33.9136 14.4219 33.9604C14.375 33.9136 14.3281 33.8667 14.2812 33.8198L13.6836 33.1519C12.793 32.1206 12.1016 31.3237 11.6094 30.7612C11.1172 30.1753 10.4258 29.3315 9.53516 28.23C8.64453 27.1284 7.94141 26.2026 7.42578 25.4526C6.91016 24.6792 6.3125 23.7534 5.63281 22.6753C4.95312 21.5737 4.42578 20.5894 4.05078 19.7222C3.69922 18.8315 3.39453 17.8823 3.13672 16.8745C2.87891 15.8433 2.75 14.8706 2.75 13.9565C2.75 11.9175 3.26562 10.019 4.29688 8.26123C5.32812 6.47998 6.71094 5.07373 8.44531 4.04248C10.2031 3.01123 12.1016 2.49561 14.1406 2.49561C15.9922 2.49561 17.6445 2.82373 19.0977 3.47998C20.5508 4.11279 21.7109 4.97998 22.5781 6.08154C23.4688 7.18311 24.1367 8.40186 24.582 9.73779C25.0273 11.0737 25.25 12.48 25.25 13.9565C25.25 19.019 21.6875 25.6401 14.5625 33.8198ZM14.0352 7.03076C13.3086 7.03076 12.5938 7.14795 11.8906 7.38232C11.2109 7.6167 10.5898 7.94482 10.0273 8.3667C9.48828 8.76514 9.00781 9.24561 8.58594 9.80811C8.16406 10.3706 7.83594 10.9917 7.60156 11.6714C7.39062 12.3511 7.28516 13.0542 7.28516 13.7808C7.28516 15.6558 7.94141 17.2495 9.25391 18.562C10.5898 19.8745 12.1836 20.5308 14.0352 20.5308C15.9102 20.5308 17.5039 19.8745 18.8164 18.562C20.1289 17.2495 20.7852 15.6558 20.7852 13.7808C20.7852 12.8667 20.6094 11.9995 20.2578 11.1792C19.9062 10.3354 19.4258 9.62061 18.8164 9.03467C18.207 8.42529 17.4805 7.94482 16.6367 7.59326C15.8164 7.21826 14.9492 7.03076 14.0352 7.03076ZM14.0352 18.2808C12.793 18.2808 11.7266 17.8354 10.8359 16.9448C9.94531 16.0542 9.5 14.9878 9.5 13.7456C9.5 12.5034 9.93359 11.4487 10.8008 10.5815C11.6914 9.69092 12.7578 9.24561 14 9.24561C15.2422 9.24561 16.2969 9.69092 17.1641 10.5815C18.0547 11.4487 18.5 12.5034 18.5 13.7456C18.5 15.2925 17.8789 16.5229 16.6367 17.437C15.8633 17.9995 14.9961 18.2808 14.0352 18.2808Z" fill="#BEB400"/>
</svg>
