<svg width="36" height="29" viewBox="0 0 36 29" fill="none" xmlns="http://www.w3.org/2000/svg">
<path d="M0 9.44368C0.0483179 9.18992 0.110008 8.93894 0.184937 8.69173C0.422732 7.97693 0.884237 7.35758 1.50122 6.92537C2.1182 6.49316 2.85794 6.271 3.61096 6.2917C6.94429 6.2917 10.2793 6.2917 13.616 6.2917H32.366C32.846 6.27696 33.324 6.36042 33.7706 6.53694C34.2173 6.71346 34.6231 6.97938 34.9634 7.31831C35.3036 7.65725 35.571 8.06206 35.7493 8.50801C35.9275 8.95396 36.0129 9.43161 36 9.9117C36 14.8937 36 19.8764 36 24.8597C36.0241 25.6131 35.8019 26.3539 35.3672 26.9698C34.9325 27.5857 34.3089 28.043 33.5909 28.2727C33.2227 28.3902 32.8385 28.4503 32.4519 28.4506C24.3279 28.4593 16.2036 28.4614 8.07898 28.4567C7.856 28.4698 7.63274 28.4347 7.42456 28.3537C7.21638 28.2728 7.02811 28.1479 6.87256 27.9876C6.71701 27.8273 6.59786 27.6354 6.52319 27.4249C6.44853 27.2144 6.42015 26.9901 6.43994 26.7677C6.43994 20.5677 6.43994 14.3643 6.43994 8.15767V7.89473C6.41269 7.88331 6.38418 7.8752 6.35498 7.87068C5.36098 7.87068 4.3669 7.87067 3.3739 7.88167C2.90291 7.90387 2.45707 8.10039 2.12292 8.43306C1.78878 8.76573 1.59021 9.21083 1.56592 9.68172C1.55992 9.77472 1.55701 9.86875 1.55701 9.96175C1.55701 14.9117 1.55701 19.861 1.55701 24.8096C1.5333 25.1981 1.62505 25.5849 1.8208 25.9212C2.01656 26.2576 2.30753 26.5284 2.65698 26.6997C2.94799 26.8366 3.2676 26.9018 3.58899 26.8897C4.08199 26.8897 4.57597 26.8837 5.06897 26.8967C5.24097 26.9012 5.40647 26.9635 5.53882 27.0734C5.67116 27.1834 5.7627 27.3346 5.79871 27.5029C5.83471 27.6711 5.81306 27.8467 5.7373 28.0012C5.66155 28.1557 5.53605 28.2801 5.38098 28.3547C5.26608 28.406 5.14181 28.4329 5.01599 28.4337C4.49499 28.4417 3.97496 28.4407 3.45496 28.4337C2.61309 28.4234 1.8033 28.1093 1.17468 27.5493C0.546064 26.9892 0.140922 26.2208 0.0339355 25.3857C0.0266286 25.354 0.0152623 25.3235 0 25.2948V9.44368ZM28.0179 26.8876V7.85567C27.9932 7.85003 27.9682 7.84606 27.943 7.8437C23.9677 7.8437 19.9923 7.84537 16.017 7.84871C15.9794 7.85551 15.9439 7.87079 15.9132 7.89351C15.8825 7.91622 15.8574 7.94574 15.84 7.97969C15.715 8.25169 15.6119 8.53369 15.4919 8.80769C15.4662 8.85686 15.4552 8.91233 15.46 8.9676C15.4647 9.02288 15.4851 9.07568 15.5189 9.1197C15.9079 9.7017 16.2809 10.2937 16.6709 10.8747C16.764 11.0012 16.8214 11.1504 16.8367 11.3067C16.852 11.463 16.8247 11.6205 16.7579 11.7626C15.9433 13.684 15.1303 15.6054 14.319 17.5267C14.2847 17.6266 14.2302 17.7185 14.1591 17.7966C14.0879 17.8747 14.0015 17.9374 13.9052 17.9808C13.8088 18.0242 13.7046 18.0474 13.599 18.0489C13.4934 18.0504 13.3885 18.0303 13.2909 17.9897C11.8862 17.523 10.4816 17.0563 9.0769 16.5897C8.95309 16.5649 8.83688 16.5113 8.73779 16.4331C8.6387 16.3548 8.5596 16.2542 8.50684 16.1395C8.45407 16.0248 8.42914 15.8993 8.4342 15.7731C8.43927 15.647 8.47423 15.5238 8.53601 15.4136C9.33601 13.5136 10.1419 11.6208 10.9359 9.72175C10.9911 9.57884 11.0798 9.45124 11.1947 9.34993C11.3096 9.24862 11.4473 9.17655 11.5959 9.13972C12.3389 8.92372 13.078 8.69773 13.818 8.47273C13.879 8.45473 13.962 8.42864 13.984 8.38264C14.065 8.21264 14.124 8.03274 14.193 7.85274H7.99292V26.8826L28.0179 26.8876ZM29.5919 26.8997C30.5489 26.8997 31.4829 26.8997 32.4159 26.8997C32.6889 26.9154 32.9621 26.8731 33.2177 26.7758C33.4732 26.6785 33.7052 26.5283 33.8986 26.335C34.0919 26.1418 34.2423 25.9097 34.3397 25.6542C34.4372 25.3988 34.4795 25.1257 34.464 24.8527C34.464 19.8701 34.459 14.8874 34.449 9.90474C34.4516 9.71184 34.4285 9.51944 34.38 9.33272C34.2794 8.89591 34.0291 8.50803 33.6726 8.23628C33.3161 7.96453 32.8758 7.826 32.428 7.84468C31.541 7.84468 30.654 7.84468 29.767 7.84468C29.71 7.84468 29.6529 7.85264 29.5919 7.85664V26.8997ZM14.2069 9.96565C13.5859 10.1507 12.987 10.3257 12.391 10.5137C12.3102 10.5468 12.2453 10.6098 12.21 10.6897C11.582 12.173 10.9576 13.6578 10.3369 15.1438C10.3119 15.2028 10.2929 15.2637 10.2649 15.3387L13.1389 16.3107C13.1522 16.2975 13.164 16.2826 13.174 16.2667C13.8406 14.694 14.5073 13.1201 15.174 11.5448C15.1819 11.5186 15.1844 11.491 15.1813 11.4638C15.1782 11.4366 15.1697 11.4104 15.156 11.3867C14.842 10.9127 14.5269 10.4447 14.2069 9.96565Z" fill="#BEB400"/>
<path d="M18.0409 0.998616C18.7879 0.998616 19.5349 0.998616 20.2829 0.998616C21.0494 0.988006 21.7981 1.22923 22.4142 1.68538C23.0302 2.14154 23.4795 2.78743 23.693 3.52364C23.8391 4.0731 23.8768 4.64568 23.8039 5.20955C23.7662 5.38414 23.6674 5.53959 23.5254 5.64791C23.3833 5.75622 23.2073 5.81037 23.0289 5.80062C22.8471 5.79518 22.6733 5.72467 22.5392 5.60189C22.405 5.4791 22.3194 5.31214 22.298 5.13155C22.277 4.85955 22.27 4.58656 22.26 4.31356C22.2145 3.82112 21.9839 3.36431 21.6147 3.03524C21.2456 2.70617 20.7654 2.5294 20.271 2.54061C18.771 2.54661 17.271 2.53059 15.771 2.54659C15.5015 2.5375 15.2331 2.58472 14.9829 2.68526C14.7327 2.7858 14.5063 2.93742 14.3181 3.13045C14.1299 3.32349 13.984 3.55373 13.8898 3.80636C13.7956 4.05898 13.7551 4.32847 13.771 4.59762C13.771 4.75062 13.771 4.90458 13.771 5.05758C13.7699 5.25669 13.6904 5.44742 13.5496 5.58822C13.4088 5.72902 13.218 5.80848 13.0189 5.80953C12.9204 5.81624 12.8215 5.8027 12.7284 5.76961C12.6353 5.73652 12.5501 5.68469 12.4779 5.61727C12.4057 5.54985 12.3481 5.46824 12.3087 5.37764C12.2693 5.28705 12.2489 5.18932 12.2489 5.09054C12.1496 4.23574 12.3353 3.37215 12.777 2.63363C13.0223 2.22632 13.3529 1.87694 13.7462 1.6097C14.1395 1.34246 14.5859 1.16362 15.0549 1.08553C15.63 1.01851 16.209 0.990156 16.788 1.00057C17.201 0.989569 17.6209 0.998616 18.0409 0.998616Z" fill="#BEB400"/>
</svg>
