<svg width="41" height="42" viewBox="0 0 41 42" fill="none" xmlns="http://www.w3.org/2000/svg">
<path d="M30.1 37.0989L29 35.4989C34.7 31.5989 39.1 27.9989 39.1 25.2989V7.79889C34.5 7.79889 28.7 6.2989 24.9 3.4989C21.2 6.2989 15.4 7.79889 10.7 7.79889V12.3989H8.80005V5.89893H9.69995C18.4 5.89893 24.1 1.59888 24.1 1.59888L24.8 0.898926L25.5 1.59888C25.5 1.59888 31.3 5.89893 39.9 5.89893H40.8V25.1989C41 29.5989 34.5 34.0989 30.1 37.0989Z" fill="#BEB400"/>
<path d="M13.9 26.2989C13.6 26.2989 13.3999 26.2989 13.1999 26.1989C11.5999 25.7989 10.5999 24.0989 10.9999 22.4989C11.3999 20.8989 13.0999 19.8989 14.6999 20.2989C15.7999 20.5989 16.6 21.3989 16.9 22.4989C17.3 24.0989 16.2999 25.7989 14.6999 26.1989C14.3999 26.2989 14.1 26.2989 13.9 26.2989ZM13.9 22.0989C13.6 22.0989 13.2999 22.1989 13.0999 22.3989C12.7999 22.6989 12.7 23.0989 12.8 23.4989C12.9 23.8989 13.1999 24.1989 13.5999 24.2989C14.1999 24.4989 14.8999 24.0989 14.9999 23.4989C15.0999 23.2989 15.0999 23.0989 14.9999 22.8989C14.8999 22.4989 14.5999 22.1989 14.1999 22.0989C14.0999 22.0989 14 22.0989 13.9 22.0989Z" fill="#BEB400"/>
<path d="M19.5 27.6989C18.2 27.6989 17.2 26.6989 17.2 25.3989C17.2 24.0989 18.2 23.0989 19.5 23.0989C20.8 23.0989 21.8 24.0989 21.8 25.3989C21.8 26.5989 20.8 27.6989 19.5 27.6989ZM19.5 24.8989C19.2 24.8989 19 25.0989 19 25.3989C19 25.6989 19.2 25.8989 19.5 25.8989C19.8 25.8989 20 25.6989 20 25.3989C19.9 25.0989 19.7 24.8989 19.5 24.8989Z" fill="#BEB400"/>
<path d="M15.3 28.1989C15.7 28.1989 16 28.4989 16 28.8989C16 29.2989 15.7 29.5989 15.3 29.5989C15.2 29.5989 15.1 29.5989 15.1 29.5989C14.9 29.4989 14.8 29.3989 14.7 29.1989C14.6 28.9989 14.7 28.7989 14.8 28.5989C14.9 28.2989 15.1 28.1989 15.3 28.1989ZM15.3 26.2989C13.9 26.2989 12.8 27.3989 12.8 28.8989C12.8 29.1989 12.8 29.3989 12.9 29.6989C13.1 30.4989 13.7 31.0989 14.5 31.2989C14.8 31.3989 15 31.3989 15.3 31.3989C16.7 31.3989 17.8 30.2989 17.8 28.8989C17.8 27.3989 16.7 26.2989 15.3 26.2989Z" fill="#BEB400"/>
<path d="M23.9 13.8989C22.6 13.8989 21.5 14.7989 21.4 16.0989C21.4 16.2989 21.3 16.3989 21.3 16.5989C21.2 17.0989 21 17.5989 20.6 17.9989C20 17.5989 19.3 17.2989 18.5 17.0989C18.3 16.2989 18.3 15.3989 18.5 14.4989C18.8 13.5989 19.5 11.7989 18.1 10.5989C17 9.59889 15.4 9.49894 14.2 10.3989C13 11.2989 12.7 12.8989 13.6 14.6989C13.9 15.4989 14 16.3989 13.7 17.1989C12.9 17.3989 12.1 17.7989 11.3 18.2989L12.3 19.8989C13 19.3989 13.8 19.0989 14.6 18.9989L15.1 18.8989L15.3 18.3989C15.9 16.9989 15.9 15.3989 15.3 13.9989C14.9 12.9989 14.9 12.3989 15.3 12.0989C15.8 11.7989 16.4 11.7989 16.8 12.1989C17.1 12.4989 17.1 12.9989 16.7 14.0989C16.3 15.4989 16.3 16.9989 16.8 18.3989L17 18.8989L17.5 18.9989C19.7 19.4989 21.4 20.9989 22.2 22.9989L23.9 22.2989C23.4 21.1989 22.8 20.1989 21.9 19.3989C22.4 18.7989 22.8 18.0989 23 17.2989C23 17.1989 23.1 16.9989 23.1 16.8989C23.3 16.0989 23.6 16.0989 23.8 16.0989C24 16.0989 24.2 16.2989 24.3 16.4989C24.3 16.6989 24.3 16.8989 23.6 17.2989L24.4 18.9989C25.5 18.5989 26.2 17.5989 26.2 16.4989C26.2 14.8989 25.2 13.8989 23.9 13.8989Z" fill="#BEB400"/>
<path d="M27.2 23.8989C28.2 24.2989 29.3 24.1989 30.1 23.5989C31.1 22.7989 31.2 21.3989 30.5 20.3989C30.1 19.7989 29.5 19.3989 28.7 19.2989C27.9 19.1989 27.2 19.4989 26.7 20.0989L28 21.4989C28.1 21.3989 28.3 21.2989 28.5 21.2989C28.7 21.2989 28.8 21.3989 28.9 21.4989C29.1 21.6989 29.1 21.9989 28.9 22.1989C28.6 22.3989 28.3 22.3989 27.7 22.1989C25.9 21.6989 23.9001 22.2989 22.8001 23.8989L22.5 24.1989L22.6 24.5989C22.6 24.8989 22.7 25.1989 22.7 25.3989C22.7 27.0989 22.1 28.6989 20.9 29.9989L20.6 30.3989L20.7 30.8989C20.8 31.3989 21.5 33.7989 23 34.6989C23.8 35.0989 24.1 35.3989 24.1 35.8989C24.1 36.1989 24.0001 36.5989 23.8001 36.7989C23.6001 36.9989 23.3 37.1989 23 37.1989C22.3 37.1989 21.9001 36.4989 21.8001 35.8989C21.6001 34.1989 20.5 32.6989 18.9 31.9989L18.5 31.7989L18.1 31.8989C17.4 32.0989 16.7 32.2989 15.9 32.2989C13.5 32.2989 11.3 30.9989 10 28.8989L9.90004 28.6989L9.69997 28.5989C8.29997 27.7989 6.19997 28.4989 5.19997 29.5989C4.39997 30.3989 3.89997 30.1989 3.69997 30.1989C3.19997 29.9989 2.80004 29.4989 2.90004 28.8989C3.10004 27.7989 4.59997 27.9989 4.69997 27.9989C6.19997 28.1989 7.70004 27.7989 8.90004 26.8989L9.30007 26.5989V26.0989C9.30007 25.9989 9.30007 25.8989 9.30007 25.7989V25.5989C9.30007 23.7989 10.0001 22.0989 11.3001 20.7989L12 20.0989L11.3001 19.3989C10.9001 18.9989 10.4 18.6989 9.90004 18.3989C9.00004 17.8989 8.59999 17.5989 8.59999 17.0989C8.59999 16.8989 8.80002 16.6989 9.00002 16.5989C9.20002 16.5989 9.40002 16.5989 9.50002 17.0989L11.3001 16.4989C11.0001 15.1989 9.70004 14.4989 8.40004 14.7989C7.40004 15.0989 6.59999 15.9989 6.59999 17.0989C6.59999 18.7989 7.90007 19.4989 8.80007 19.9989L9.09999 20.1989C8.69999 20.6989 8.30002 21.2989 8.00002 21.9989C7.10002 21.7989 6.29999 21.3989 5.59999 20.7989C5.19999 20.4989 4.80004 20.1989 4.40004 19.9989C3.80004 19.6989 3.00004 19.6989 2.40004 19.9989C1.80004 20.1989 1.29999 20.6989 1.09999 21.3989C0.899993 22.0989 1.00004 22.8989 1.40004 23.4989C1.90004 24.1989 2.79999 24.5989 3.59999 24.5989L3.69997 22.6989C3.39997 22.6989 3.10004 22.5989 2.90004 22.3989C2.80004 22.2989 2.80007 22.0989 2.80007 21.8989C2.80007 21.7989 2.89999 21.6989 3.09999 21.6989C3.19999 21.5989 3.40002 21.5989 3.50002 21.6989C3.80002 21.8989 4.10004 22.0989 4.40004 22.2989C5.30004 23.0989 6.30004 23.5989 7.40004 23.8989C7.30004 24.4989 7.19997 24.9989 7.19997 25.5989V25.6989C6.49997 26.0989 5.60007 26.2989 4.80007 26.1989C3.20007 25.9989 1.30004 26.6989 0.900041 28.5989C0.700041 30.0989 1.50004 31.4989 2.90004 31.9989C4.20004 32.3989 5.60004 31.9989 6.40004 30.9989C6.90004 30.4989 7.70002 30.1989 8.50002 30.2989C9.00002 31.0989 9.70004 31.7989 10.4 32.3989C9.70004 33.2989 9.30007 34.2989 9.30007 35.3989C9.30007 35.5989 9.20007 35.9989 8.80007 35.8989C8.70007 35.8989 8.60002 35.7989 8.50002 35.6989C8.40002 35.5989 8.40004 35.4989 8.40004 35.2989C8.50004 35.0989 8.60004 34.8989 8.90004 34.7989L8.30007 32.9989C7.30007 33.2989 6.60002 34.0989 6.50002 35.0989C6.40002 35.6989 6.59999 36.3989 7.09999 36.8989C7.49999 37.3989 8.09997 37.6989 8.69997 37.6989C8.79997 37.6989 8.80004 37.6989 8.90004 37.6989C10.2 37.6989 11.2 36.6989 11.2 35.3989C11.2 34.5989 11.5 33.7989 12.1 33.2989C12.8 33.6989 13.6 33.8989 14.4 34.0989C14.6 35.0989 14.4 36.0989 14 37.0989C13.1 38.8989 13.6 39.9989 14.2 40.5989C15.1 41.4989 16.6 41.4989 17.5 40.5989C18.4 39.5989 18.4 38.1989 17.6 37.1989L16 38.1989C16.3 38.5989 16.3 39.0989 16.1 39.2989C15.9 39.4989 15.6 39.4989 15.5 39.2989C15.4 39.1989 15.1 38.8989 15.6 37.9989C16.2 36.8989 16.4001 35.5989 16.3001 34.2989C17.0001 34.2989 17.6 34.1989 18.2 33.9989C19.1 34.4989 19.7001 35.2989 19.8001 36.2989C19.9001 37.8989 21.2001 39.1989 22.8001 39.1989C23.6001 39.1989 24.5 38.7989 25 38.1989C25.6 37.5989 25.9001 36.6989 25.8001 35.8989C25.6001 34.6989 24.8 33.6989 23.7 33.1989C23.1 32.5989 22.7 31.8989 22.5 31.0989C22.9 30.4989 23.3 29.8989 23.6 29.2989C24.2 29.4989 24.7 29.8989 25.1 30.3989C25.6 30.9989 26.4 32.1989 27.7 32.1989C29 32.1989 30 31.0989 30 29.8989C30 28.6989 29.1001 27.6989 27.8001 27.6989C27.7001 27.6989 27.7 27.6989 27.6 27.6989V29.5989C28.1 29.5989 28.1 29.7989 28.1 29.9989C28.1 30.2989 27.9 30.4989 27.6 30.4989C27.3 30.4989 26.7 29.7989 26.5 29.4989C25.9 28.5989 25.1 27.9989 24.1 27.6989C24.2 27.0989 24.3001 26.4989 24.3001 25.7989C24.3001 25.5989 24.3001 25.3989 24.3001 25.0989C25.3001 23.8989 26.3 23.5989 27.2 23.8989Z" fill="#BEB400"/>
</svg>
