<svg width="21" height="22" viewBox="0 0 21 22" fill="none" xmlns="http://www.w3.org/2000/svg">
<path d="M0.780193 11.1847C0.733311 15.9011 3.90256 19.511 7.70002 20.6175C11.8069 21.8083 16.2514 20.1205 18.5111 16.4918C20.7802 12.8819 20.377 8.17488 17.5359 5.015C17.0109 4.42429 16.3733 4.03047 15.6044 3.85232C15.4731 3.82419 15.295 3.65542 15.2668 3.52415C15.1074 2.65213 14.6199 2.04266 13.8416 1.65823C12.332 0.917486 10.738 0.870604 9.12525 1.18003C4.70893 2.02391 1.46468 5.44632 0.864582 9.88139C0.817699 10.3033 0.817699 10.744 0.780193 11.1847ZM12.2476 20.158C12.107 20.2049 12.0226 20.2424 11.9288 20.2611C10.5692 20.4768 9.21901 20.4299 7.88755 20.0361C3.05867 18.6296 0.311369 13.5663 1.72721 8.54056C2.83364 4.61182 5.68408 2.53962 9.53781 1.72386C10.8318 1.44257 12.1351 1.55509 13.3634 2.08017C14.4511 2.54899 14.8355 3.34599 14.6199 4.4993C14.4417 5.44632 13.9541 6.21519 13.1853 6.72152C12.4633 7.19972 11.6756 7.61229 10.8599 7.89358C8.29074 8.76559 6.80926 10.8753 7.20307 13.5382C7.62501 16.4074 9.08774 18.6296 11.7694 19.933C11.9194 19.9986 12.0507 20.0642 12.2476 20.158ZM15.2856 15.226C14.9387 15.6667 14.8449 16.1824 14.9199 16.7543C15.0137 17.4388 14.7793 17.6357 14.0854 17.5232C13.0821 17.3638 12.0882 17.1857 11.0849 17.0356C10.9162 17.0075 10.7286 17.12 10.5505 17.1669C10.6067 17.3357 10.6161 17.5326 10.7192 17.6545C11.1881 18.2452 11.685 18.8172 12.182 19.3985C12.1445 19.3985 12.107 19.4173 12.0882 19.4079C11.9569 19.3516 11.835 19.286 11.7132 19.2204C9.54719 18.0483 8.33762 16.1636 7.84067 13.8101C7.34372 11.4473 8.52515 9.36569 10.7943 8.57806C12.1445 8.11862 13.4103 7.5654 14.3761 6.4121C15.1074 7.46226 15.37 8.57806 15.0981 9.77825C15.0043 10.2096 15.0699 10.5096 15.3606 10.8284C15.8107 11.3347 16.2232 11.888 16.7108 12.4974C16.3639 12.6943 16.092 12.91 15.7825 13.0038C15.3981 13.1257 15.3512 13.3038 15.52 13.6226C15.6044 13.782 15.6794 13.9414 15.7544 14.1102C14.7324 14.4852 14.7042 14.4477 15.2856 15.226ZM16.1857 13.5851C16.4483 13.3788 16.7014 13.2194 16.9171 13.0131C17.3578 12.5912 17.3672 12.3662 16.9921 11.8973C16.5983 11.4098 16.2045 10.9316 15.8294 10.4252C15.7357 10.294 15.67 10.0877 15.7075 9.92828C15.9701 8.54993 15.7075 7.29349 14.9293 6.1308C14.8636 6.03704 14.7793 5.88702 14.8074 5.80263C14.9574 5.3338 15.1449 4.88373 15.3325 4.40553C16.0357 4.50868 16.5983 4.83685 17.0577 5.35256C18.9049 7.49039 19.7019 9.96578 19.2706 12.7412C18.7643 15.9761 16.9358 18.2546 13.9729 19.6329C13.8322 19.6986 13.5697 19.7173 13.4665 19.6235C12.8196 19.061 12.1914 18.4515 11.5631 17.8701C11.5913 17.8326 11.6194 17.7951 11.6475 17.7576C11.7788 17.7764 11.9194 17.7858 12.0507 17.8139C12.7633 17.9264 13.4666 18.0671 14.1792 18.1421C15.1168 18.2452 15.5856 17.7764 15.5387 16.8294C15.5294 16.6887 15.4731 16.5481 15.5012 16.4074C15.5481 16.173 15.5669 15.8636 15.7169 15.7229C16.0545 15.4041 16.1201 15.1322 15.7732 14.804C16.5233 14.4665 16.5233 14.4665 16.1857 13.5851Z" fill="#A0A0A0" stroke="#A0A0A0" stroke-width="0.6"/>
</svg>
