<svg width="20" height="22" viewBox="0 0 20 22" fill="none" xmlns="http://www.w3.org/2000/svg">
<path d="M0.390423 11.1847C0.34354 15.9011 3.51279 19.511 7.31025 20.6175C11.4171 21.8083 15.8616 20.1205 18.1213 16.4918C20.3904 12.8819 19.9872 8.17488 17.1462 5.015C16.6211 4.42429 15.9835 4.03047 15.2146 3.85232C15.0833 3.82419 14.9052 3.65542 14.8771 3.52415C14.7177 2.65213 14.2301 2.04266 13.4518 1.65823C11.9422 0.917486 10.3482 0.870604 8.73548 1.18003C4.31916 2.02391 1.07491 5.44632 0.474812 9.88139C0.427929 10.3033 0.427929 10.744 0.390423 11.1847ZM11.8578 20.158C11.7172 20.2049 11.6328 20.2424 11.539 20.2611C10.1795 20.4768 8.82924 20.4299 7.49778 20.0361C2.66891 18.6296 -0.0784016 13.5663 1.33744 8.54056C2.44387 4.61182 5.29431 2.53962 9.14804 1.72386C10.442 1.44257 11.7453 1.55509 12.9736 2.08017C14.0613 2.54899 14.4457 3.34599 14.2301 4.4993C14.0519 5.44632 13.5644 6.21519 12.7955 6.72152C12.0735 7.19972 11.2859 7.61229 10.4701 7.89358C7.90097 8.76559 6.41949 10.8753 6.8133 13.5382C7.23524 16.4074 8.69797 18.6296 11.3796 19.933C11.5297 19.9986 11.6609 20.0642 11.8578 20.158ZM14.8958 15.226C14.5489 15.6667 14.4551 16.1824 14.5301 16.7543C14.6239 17.4388 14.3895 17.6357 13.6956 17.5232C12.6923 17.3638 11.6984 17.1857 10.6952 17.0356C10.5264 17.0075 10.3389 17.12 10.1607 17.1669C10.217 17.3357 10.2263 17.5326 10.3295 17.6545C10.7983 18.2452 11.2953 18.8172 11.7922 19.3985C11.7547 19.3985 11.7172 19.4173 11.6984 19.4079C11.5672 19.3516 11.4453 19.286 11.3234 19.2204C9.15742 18.0483 7.94785 16.1636 7.4509 13.8101C6.95395 11.4473 8.13538 9.36569 10.4045 8.57806C11.7547 8.11862 13.0205 7.5654 13.9863 6.4121C14.7177 7.46226 14.9802 8.57806 14.7083 9.77825C14.6145 10.2096 14.6802 10.5096 14.9708 10.8284C15.4209 11.3347 15.8335 11.888 16.321 12.4974C15.9741 12.6943 15.7022 12.91 15.3928 13.0038C15.0083 13.1257 14.9614 13.3038 15.1302 13.6226C15.2146 13.782 15.2896 13.9414 15.3646 14.1102C14.3426 14.4852 14.3145 14.4477 14.8958 15.226ZM15.796 13.5851C16.0585 13.3788 16.3117 13.2194 16.5273 13.0131C16.968 12.5912 16.9774 12.3662 16.6023 11.8973C16.2085 11.4098 15.8147 10.9316 15.4396 10.4252C15.3459 10.294 15.2802 10.0877 15.3178 9.92828C15.5803 8.54993 15.3178 7.29349 14.5395 6.1308C14.4739 6.03704 14.3895 5.88702 14.4176 5.80263C14.5676 5.3338 14.7552 4.88373 14.9427 4.40553C15.6459 4.50868 16.2085 4.83685 16.668 5.35256C18.5151 7.49039 19.3121 9.96578 18.8808 12.7412C18.3745 15.9761 16.5461 18.2546 13.5831 19.6329C13.4425 19.6986 13.1799 19.7173 13.0768 19.6235C12.4298 19.061 11.8016 18.4515 11.1734 17.8701C11.2015 17.8326 11.2296 17.7951 11.2577 17.7576C11.389 17.7764 11.5297 17.7858 11.6609 17.8139C12.3735 17.9264 13.0768 18.0671 13.7894 18.1421C14.727 18.2452 15.1959 17.7764 15.149 16.8294C15.1396 16.6887 15.0833 16.5481 15.1115 16.4074C15.1584 16.173 15.1771 15.8636 15.3271 15.7229C15.6647 15.4041 15.7303 15.1322 15.3834 14.804C16.1335 14.4665 16.1335 14.4665 15.796 13.5851Z" fill="white" stroke="white" stroke-width="0.6"/>
</svg>
