<svg width="101" height="35" viewBox="0 0 101 35" fill="none" xmlns="http://www.w3.org/2000/svg">
<path fill-rule="evenodd" clip-rule="evenodd" d="M53.484 15.4571H61.019C61.088 15.4487 61.158 15.4561 61.2237 15.4787C61.2894 15.5014 61.3491 15.5387 61.3982 15.5878C61.4474 15.637 61.4847 15.6967 61.5074 15.7624C61.53 15.8281 61.5374 15.8981 61.529 15.9671V18.5581C61.5372 18.627 61.5297 18.6969 61.507 18.7625C61.4842 18.8281 61.4469 18.8877 61.3978 18.9368C61.3487 18.9859 61.2891 19.0232 61.2235 19.046C61.1579 19.0687 61.088 19.0763 61.019 19.0681H53.484V21.6681C53.4249 22.215 53.5781 22.7638 53.912 23.2011C54.1095 23.3669 54.3386 23.4908 54.5855 23.5652C54.8324 23.6397 55.0918 23.6631 55.348 23.6341H58.084C59.5866 23.6494 61.0888 23.5826 62.584 23.4341C62.872 23.4341 63.031 23.5981 63.031 23.9521C63.088 24.8984 62.9721 25.8472 62.689 26.7521C62.6398 26.8686 62.5579 26.9684 62.4532 27.0393C62.3485 27.1103 62.2255 27.1495 62.099 27.1521C60.9979 27.2673 59.8912 27.321 58.784 27.3131H55.308C51.897 27.3131 49.051 26.5131 49.03 21.7851V13.0181C49.051 8.28905 51.897 7.48405 55.308 7.48405H58.789C59.8961 7.4771 61.0028 7.53085 62.104 7.64505C62.2303 7.64826 62.3531 7.68765 62.4577 7.75855C62.5623 7.82946 62.6443 7.9289 62.694 8.04505C62.9768 8.94995 63.0927 9.89871 63.036 10.8451C63.036 11.2011 62.877 11.3631 62.589 11.3631C61.0938 11.2145 59.5915 11.1478 58.089 11.1631H55.348C55.0918 11.134 54.8324 11.1574 54.5855 11.2319C54.3386 11.3063 54.1095 11.4302 53.912 11.5961C53.578 12.0344 53.4248 12.5841 53.484 13.1321V15.4571ZM73.048 16.9181C75.888 16.9181 76.77 15.3321 76.77 13.8181C76.77 12.3041 75.763 10.9541 73.048 10.9541C71.923 10.9541 70.73 11.0541 70.73 11.0541V16.8221C70.73 16.8221 71.83 16.9221 73.048 16.9221V16.9181ZM73.248 20.2731C71.999 20.2731 70.73 20.1731 70.73 20.1731V26.8121C70.7383 26.881 70.7307 26.9508 70.708 27.0164C70.6853 27.082 70.6479 27.1415 70.5988 27.1906C70.5497 27.2396 70.4901 27.2768 70.4244 27.2994C70.3588 27.322 70.2889 27.3294 70.22 27.3211H66.914C66.8452 27.3293 66.7754 27.3217 66.7099 27.2991C66.6444 27.2764 66.585 27.2391 66.536 27.1901C66.487 27.1411 66.4497 27.0816 66.427 27.0161C66.4043 26.9507 66.3968 26.8809 66.405 26.8121V8.78205C66.434 7.93505 66.651 7.78205 67.458 7.67205C68.7629 7.52846 70.0753 7.46368 71.388 7.47805H73.248C77.736 7.50005 81.148 9.37805 81.148 13.8781C81.1995 15.0033 80.9175 16.1186 80.3376 17.0843C79.7576 18.0499 78.9055 18.8228 77.888 19.3061L82.373 26.7691C82.541 27.0481 82.429 27.3191 82.064 27.3191H78.04C77.8846 27.3373 77.7274 27.3069 77.59 27.232C77.4527 27.1572 77.3419 27.0415 77.273 26.9011L73.624 20.2661L73.248 20.2731ZM99.682 8.00005C99.7888 8.05385 99.8764 8.13903 99.9333 8.24416C99.9901 8.34928 100.013 8.4693 100 8.58805C100 15.2161 96.223 23.4371 95.2 25.2291C94.388 26.6491 93.572 27.3161 92.177 27.3161H90.819C89.373 27.3161 88.555 26.6501 87.742 25.2301C86.716 23.4381 83.142 15.2171 83.142 8.58905C83.1286 8.4703 83.1519 8.35028 83.2088 8.24516C83.2656 8.14003 83.3533 8.05485 83.46 8.00105C84.149 7.58605 85.274 7.48905 87.2 7.48905C87.488 7.48905 87.7 7.58405 87.721 7.93505C88.0495 13.3908 89.4092 18.7348 91.728 23.6841C94.0544 18.7368 95.4183 13.3921 95.747 7.93505C95.76 7.58405 95.976 7.48905 96.266 7.48905C97.4311 7.37508 98.6063 7.55096 99.687 8.00105" fill="#223880"/>
<path d="M25.868 0.0220008C29.8348 0.942143 33.3799 3.16232 35.9396 6.32937C38.4993 9.49642 39.9264 13.4285 39.994 17.5C39.9271 21.5717 38.5002 25.5041 35.9404 28.6713C33.3807 31.8385 29.8351 34.0585 25.868 34.978C25.7313 35.0103 25.5878 34.9936 25.4621 34.931C25.3365 34.8683 25.2369 34.7636 25.1805 34.635C25.1241 34.5065 25.1146 34.3622 25.1536 34.2274C25.1926 34.0925 25.2777 33.9756 25.394 33.897C28.1831 32.1652 30.4844 29.7506 32.0801 26.8814C33.6759 24.0123 34.5134 20.7835 34.5134 17.5005C34.5134 14.2175 33.6759 10.9887 32.0801 8.11956C30.4844 5.25042 28.1831 2.83578 25.394 1.104C25.2769 1.02568 25.1912 0.908693 25.1517 0.773519C25.1123 0.638345 25.1216 0.493597 25.1781 0.364614C25.2346 0.235631 25.3347 0.130633 25.4608 0.0679965C25.5869 0.00536041 25.731 -0.0109222 25.868 0.0220008Z" fill="#BEB400"/>
<path d="M28.2889 16.8149C28.4417 20.0427 27.4856 23.2256 25.5793 25.8348C23.673 28.444 20.9314 30.3224 17.8099 31.158C14.6884 31.9936 11.375 31.736 8.42019 30.428C5.46535 29.12 3.04699 26.8404 1.56689 23.9679C3.50589 26.8849 9.73289 27.8379 16.4429 26.0419C23.1529 24.2459 28.0699 20.3109 28.2889 16.8149Z" fill="#223880"/>
<path d="M0.374944 20.7109L0.332944 20.5329C-0.0355206 18.8705 -0.098547 17.1549 0.146943 15.4699C0.155943 15.5279 0.168942 15.5849 0.183942 15.6429C0.847942 18.1179 7.01094 18.6159 13.9529 16.7569C20.8949 14.8979 25.9829 11.3849 25.3209 8.91094C25.3061 8.85354 25.2877 8.7971 25.2659 8.74194C26.3216 10.0793 27.1256 11.5973 27.6389 13.2219L27.6909 13.3969C28.7389 17.3079 23.4769 22.1129 15.9309 24.1329C8.38494 26.1529 1.42294 24.6199 0.374944 20.7109Z" fill="#223880"/>
<path d="M0.661096 14.0199C0.585151 13.7113 0.601847 13.3871 0.709097 13.0879C1.44404 10.8557 2.72315 8.84157 4.43103 7.22725C6.13891 5.61293 8.22183 4.44921 10.4919 3.84107C12.7619 3.23293 15.1476 3.19951 17.4338 3.74382C19.72 4.28813 21.8347 5.39305 23.5871 6.95889C23.8301 7.1646 24.0065 7.4378 24.0941 7.74389C24.6791 9.92289 19.9081 13.0959 13.4361 14.8289C6.9641 16.5619 1.2461 16.1999 0.661096 14.0199Z" fill="#223880"/>
</svg>
