<svg width="20" height="21" viewBox="0 0 20 21" fill="none" xmlns="http://www.w3.org/2000/svg">
<path d="M10 0.25C8.1901 0.25 6.51693 0.699219 4.98047 1.59766C3.44401 2.48307 2.22656 3.69401 1.32812 5.23047C0.442708 6.76693 0 8.4401 0 10.25C0 12.0599 0.442708 13.7331 1.32812 15.2695C2.22656 16.806 3.44401 18.0234 4.98047 18.9219C6.51693 19.8073 8.1901 20.25 10 20.25C11.3542 20.25 12.6497 19.9831 13.8867 19.4492C15.1237 18.9284 16.1849 18.2253 17.0703 17.3398C17.9688 16.4414 18.6784 15.3737 19.1992 14.1367C19.7331 12.8997 20 11.6042 20 10.25C20 8.89583 19.7331 7.60026 19.1992 6.36328C18.6784 5.1263 17.9688 4.0651 17.0703 3.17969C16.1849 2.28125 15.1237 1.57161 13.8867 1.05078C12.6497 0.516927 11.3542 0.25 10 0.25ZM10 19.0195C9.04948 19.0195 8.125 18.8763 7.22656 18.5898C6.34115 18.2904 5.54036 17.8672 4.82422 17.3203C4.10807 16.7734 3.47656 16.1419 2.92969 15.4258C2.39583 14.7096 1.97917 13.9089 1.67969 13.0234C1.39323 12.125 1.25 11.2005 1.25 10.25C1.25 9.0651 1.47786 7.93229 1.93359 6.85156C2.40234 5.77083 3.02734 4.83984 3.80859 4.05859C4.58984 3.27734 5.52083 2.65885 6.60156 2.20312C7.68229 1.73438 8.8151 1.5 10 1.5C11.1849 1.5 12.3177 1.73438 13.3984 2.20312C14.4792 2.65885 15.4102 3.27734 16.1914 4.05859C16.9727 4.83984 17.5911 5.77083 18.0469 6.85156C18.5156 7.93229 18.75 9.0651 18.75 10.25C18.75 11.4349 18.5156 12.5677 18.0469 13.6484C17.5911 14.7292 16.9727 15.6667 16.1914 16.4609C15.4102 17.2422 14.4792 17.8672 13.3984 18.3359C12.3177 18.7917 11.1849 19.0195 10 19.0195ZM9.08203 15.875H10.6445V14.293H9.08203V15.875ZM9.98047 4.625C9.79818 4.625 9.6224 4.63802 9.45312 4.66406C9.28385 4.67708 9.12109 4.70312 8.96484 4.74219C8.80859 4.78125 8.65885 4.83333 8.51562 4.89844C8.3724 4.95052 8.22917 5.01562 8.08594 5.09375C7.95573 5.17188 7.83203 5.25651 7.71484 5.34766C7.44141 5.58203 7.22656 5.92057 7.07031 6.36328C6.91406 6.79297 6.84245 7.22266 6.85547 7.65234L6.875 7.71094H8.32031C8.32031 7.4375 8.35938 7.15755 8.4375 6.87109C8.52865 6.58464 8.65234 6.38281 8.80859 6.26562C8.96484 6.13542 9.14062 6.03776 9.33594 5.97266C9.53125 5.90755 9.74609 5.875 9.98047 5.875C10.2539 5.875 10.4883 5.91406 10.6836 5.99219C10.8919 6.07031 11.0677 6.18099 11.2109 6.32422C11.4974 6.61068 11.6406 7.02083 11.6406 7.55469C11.6406 7.78906 11.6146 8.00391 11.5625 8.19922C11.5104 8.38151 11.4323 8.55729 11.3281 8.72656C11.1068 9.03906 10.7487 9.49479 10.2539 10.0938C9.73307 10.5625 9.40755 10.9401 9.27734 11.2266C9.16016 11.513 9.10156 12.0208 9.10156 12.75H10.6055C10.6055 12.2943 10.6315 11.9557 10.6836 11.7344C10.7096 11.6302 10.7617 11.5195 10.8398 11.4023C10.931 11.2721 11.0482 11.1354 11.1914 10.9922C11.4779 10.7057 11.7383 10.4258 11.9727 10.1523C12.2201 9.86589 12.4349 9.59245 12.6172 9.33203C12.9688 8.78516 13.1445 8.17969 13.1445 7.51562C13.1445 6.60417 12.8646 5.89453 12.3047 5.38672C11.7578 4.87891 10.9831 4.625 9.98047 4.625Z" fill="#78A7CD"/>
</svg>
