<svg width="32" height="32" viewBox="0 0 32 32" fill="none" xmlns="http://www.w3.org/2000/svg">
<rect width="32" height="32" rx="4" fill="#A0A0A0"/>
<path d="M15.9956 8C13.8232 8 13.5512 8.01 12.6965 8.048C12.0333 8.06124 11.3771 8.18702 10.756 8.42C10.2249 8.62581 9.74241 8.9401 9.33946 9.34282C8.9365 9.74555 8.62189 10.2279 8.41569 10.759C8.18496 11.3806 8.06157 12.037 8.05079 12.7C8.0118 13.554 7.9978 13.827 7.9978 16C7.9978 18.173 8.0078 18.444 8.04679 19.3C8.06026 19.9633 8.18565 20.6195 8.41768 21.241C8.62306 21.7727 8.93724 22.2556 9.3401 22.6587C9.74295 23.0619 10.2256 23.3763 10.757 23.582C11.3785 23.815 12.035 23.9407 12.6985 23.954C13.5512 23.993 13.8242 24.002 15.9976 24.002C18.1709 24.002 18.4419 23.993 19.2966 23.954C19.9605 23.9407 20.6173 23.815 21.2391 23.582C21.77 23.3759 22.2521 23.0613 22.6547 22.6584C23.0573 22.2555 23.3716 21.7731 23.5774 21.242C23.8093 20.6201 23.935 19.9636 23.9493 19.3C23.9873 18.447 23.9973 18.175 23.9973 16C23.9973 13.825 23.9873 13.555 23.9493 12.7C23.9351 12.0367 23.8094 11.3805 23.5774 10.759C23.3722 10.2273 23.0581 9.7445 22.6552 9.3415C22.2523 8.93851 21.7696 8.62428 21.2381 8.419C20.6159 8.18639 19.9587 8.06094 19.2946 8.048C18.4429 8.01 18.1709 8 15.9956 8ZM15.2778 9.442C15.4907 9.442 15.7286 9.442 15.9956 9.442C18.131 9.442 18.3839 9.449 19.2276 9.488C19.7346 9.49391 20.2368 9.58693 20.7122 9.763C21.057 9.89619 21.3701 10.1 21.6315 10.3615C21.8929 10.6229 22.0967 10.9361 22.2298 11.281C22.4063 11.7565 22.4996 12.2588 22.5057 12.766C22.5437 13.61 22.5517 13.866 22.5517 15.998C22.5517 18.13 22.5437 18.386 22.5057 19.23C22.4996 19.7372 22.4063 20.2395 22.2298 20.715C22.0964 21.0596 21.8925 21.3726 21.6311 21.6338C21.3698 21.895 21.0568 22.0988 20.7122 22.232C20.2369 22.4085 19.7347 22.5019 19.2276 22.508C18.3839 22.546 18.128 22.554 15.9956 22.554C13.8632 22.554 13.6072 22.546 12.7635 22.508C12.2565 22.5014 11.7544 22.408 11.2789 22.232C10.9338 22.099 10.6205 21.8953 10.3589 21.6338C10.0974 21.3724 9.89346 21.059 9.76031 20.714C9.58429 20.2384 9.4913 19.7361 9.48538 19.229C9.4464 18.386 9.4394 18.129 9.4394 15.996C9.4394 13.863 9.4464 13.608 9.48538 12.764C9.4913 12.2569 9.58429 11.7546 9.76031 11.279C9.89346 10.934 10.0974 10.6206 10.3589 10.3592C10.6205 10.0977 10.9338 9.89396 11.2789 9.761C11.7542 9.58446 12.2564 9.49109 12.7635 9.485C13.5013 9.451 13.7872 9.441 15.2778 9.44V9.442ZM20.2644 10.77C20.0745 10.77 19.889 10.8263 19.7312 10.9318C19.5733 11.0373 19.4503 11.1872 19.3777 11.3626C19.305 11.538 19.286 11.7311 19.3231 11.9173C19.3601 12.1035 19.4515 12.2746 19.5857 12.4088C19.7199 12.5431 19.891 12.6345 20.0771 12.6716C20.2633 12.7086 20.4563 12.6896 20.6316 12.6169C20.807 12.5443 20.9569 12.4212 21.0623 12.2633C21.1678 12.1055 21.2241 11.9199 21.2241 11.73C21.2241 11.6039 21.1993 11.4791 21.151 11.3626C21.1028 11.2462 21.0321 11.1403 20.943 11.0512C20.8539 10.962 20.7481 10.8913 20.6316 10.8431C20.5152 10.7948 20.3904 10.77 20.2644 10.77ZM15.9956 11.892C15.1835 11.893 14.39 12.1348 13.7153 12.5868C13.0406 13.0387 12.515 13.6807 12.2049 14.4314C11.8948 15.1821 11.8142 16.0079 11.9732 16.8045C12.1323 17.601 12.5238 18.3325 13.0983 18.9066C13.6729 19.4806 14.4047 19.8713 15.2012 20.0294C15.9977 20.1875 16.8232 20.1059 17.5733 19.7948C18.3235 19.4837 18.9646 18.9572 19.4156 18.2818C19.8667 17.6063 20.1074 16.8123 20.1074 16C20.1074 15.4601 20.001 14.9255 19.7943 14.4268C19.5876 13.928 19.2846 13.475 18.9028 13.0934C18.5209 12.7119 18.0676 12.4094 17.5687 12.2033C17.0699 11.9971 16.5353 11.8913 15.9956 11.892ZM15.9956 13.333C16.5231 13.332 17.0391 13.4876 17.4782 13.78C17.9173 14.0725 18.2598 14.4887 18.4624 14.9759C18.665 15.4632 18.7185 15.9996 18.6162 16.5172C18.5139 17.0349 18.2603 17.5106 17.8876 17.8841C17.515 18.2576 17.0399 18.5121 16.5226 18.6154C16.0052 18.7187 15.4689 18.6662 14.9814 18.4645C14.4939 18.2628 14.0772 17.9209 13.784 17.4822C13.4908 17.0435 13.3343 16.5277 13.3343 16C13.3343 15.2935 13.6145 14.6159 14.1135 14.1159C14.6124 13.6159 15.2893 13.3343 15.9956 13.333Z" fill="white"/>
</svg>
