<svg width="32" height="32" viewBox="0 0 32 32" fill="none" xmlns="http://www.w3.org/2000/svg">
<rect width="32" height="32" rx="4" fill="#A0A0A0"/>
<path fill-rule="evenodd" clip-rule="evenodd" d="M18.0129 8.68842C17.3281 8.23536 16.5243 7.99579 15.7033 8.00006C14.6065 8.00291 13.5558 8.44128 12.7823 9.21875C12.0087 9.99623 11.5756 11.0491 11.5783 12.1459C11.5781 12.9669 11.8218 13.7696 12.2783 14.452C12.7348 15.1345 13.3836 15.666 14.1425 15.9793C14.9014 16.2926 15.7363 16.3736 16.5413 16.2119C17.3462 16.0503 18.0851 15.6532 18.6643 15.0712C19.2434 14.4892 19.6366 13.7483 19.7942 12.9425C19.9518 12.1367 19.8667 11.3023 19.5496 10.545C19.2324 9.78762 18.6976 9.14148 18.0129 8.68842ZM19.9831 22.8725C19.9831 22.5739 19.8649 22.2873 19.6544 22.0755L17.1666 19.5891C18.1399 19.4044 19.06 19.0059 19.8606 18.4225C20.0929 18.2347 20.2415 17.9627 20.274 17.6658C20.3064 17.3689 20.22 17.0712 20.0337 16.8377C19.9419 16.7217 19.828 16.6251 19.6986 16.5535C19.5692 16.4818 19.4269 16.4366 19.2798 16.4205C19.1328 16.4043 18.984 16.4175 18.8421 16.4592C18.7003 16.501 18.5681 16.5706 18.4533 16.6639C17.6259 17.2191 16.6478 17.5065 15.6515 17.4871C14.6485 17.5036 13.664 17.2166 12.8268 16.6639C12.712 16.5707 12.5798 16.5012 12.4379 16.4595C12.296 16.4178 12.1473 16.4046 12.0003 16.4208C11.8533 16.4369 11.711 16.4821 11.5815 16.5537C11.4521 16.6252 11.3382 16.7218 11.2464 16.8377C11.0603 17.0713 10.9742 17.369 11.0067 17.6659C11.0393 17.9628 11.188 18.2347 11.4202 18.4225C12.2474 19.0185 13.1977 19.4215 14.2011 19.6021L11.8347 22.0877C11.6282 22.3035 11.5155 22.5922 11.521 22.8908C11.5265 23.1895 11.6499 23.4738 11.8642 23.6818C11.9699 23.7846 12.0948 23.8655 12.2319 23.9197C12.369 23.974 12.5155 24.0005 12.6629 23.9979C12.8103 23.9952 12.9557 23.9633 13.0908 23.9042C13.2258 23.845 13.3478 23.7597 13.4496 23.6531L15.648 21.2989L18.0682 23.6696C18.172 23.7743 18.2956 23.8574 18.4317 23.9141C18.5679 23.9708 18.7138 24 18.8613 24C19.0088 24 19.1548 23.9708 19.2909 23.9141C19.427 23.8574 19.5506 23.7743 19.6544 23.6696C19.8649 23.4578 19.9831 23.1712 19.9831 22.8725ZM16.6579 13.5753C16.3749 13.7626 16.0426 13.8617 15.7033 13.86C15.4787 13.8594 15.2565 13.8146 15.0493 13.7282C14.8421 13.6417 14.6539 13.5153 14.4955 13.3562C14.3372 13.197 14.2117 13.0082 14.1263 12.8005C14.0409 12.5929 13.9972 12.3704 13.9978 12.1459C13.9978 11.8065 14.0986 11.4748 14.2873 11.1927C14.476 10.9107 14.7443 10.691 15.058 10.5615C15.3717 10.432 15.7168 10.3986 16.0495 10.4654C16.3822 10.5323 16.6876 10.6964 16.927 10.937C17.1664 11.1775 17.3289 11.4838 17.3941 11.8168C17.4593 12.1499 17.424 12.4948 17.293 12.8079C17.1619 13.1209 16.9409 13.388 16.6579 13.5753Z" fill="white"/>
</svg>
