<svg width="32" height="32" viewBox="0 0 32 32" fill="none" xmlns="http://www.w3.org/2000/svg">
<rect width="32" height="32" rx="4" fill="#A0A0A0"/>
<path fill-rule="evenodd" clip-rule="evenodd" d="M21.6185 16.6698C21.7965 16.8588 22.0295 17.1128 22.2375 17.2908C22.7315 17.7138 24.7535 19.6068 23.6125 20.0208C22.8393 20.1188 22.0592 20.1523 21.2805 20.1208C20.9601 20.1384 20.64 20.0803 20.3463 19.9512C20.0525 19.8221 19.7932 19.6257 19.5895 19.3778C19.2324 18.9373 18.8394 18.5272 18.4145 18.1518C17.6925 17.6068 17.4035 18.6048 17.3615 19.2458C17.3015 20.1698 17.1935 20.1058 15.7615 20.0938C14.8328 20.0345 13.9304 19.7613 13.1248 19.2955C12.3192 18.8298 11.6322 18.184 11.1175 17.4088C10.0655 15.9643 9.15881 14.4195 8.41047 12.7968C8.29947 12.5528 8.11047 12.2108 8.03647 11.9688C7.88347 11.4878 8.23648 11.4238 8.63648 11.4178C9.43007 11.3661 10.2266 11.3822 11.0175 11.4658C11.4175 11.6388 11.5575 12.3168 11.9115 13.0148C12.1595 13.5028 13.6115 16.2458 14.1015 15.2688C14.3888 14.2248 14.3833 13.1219 14.0855 12.0808C14.0082 11.9594 13.902 11.8591 13.7765 11.7888C13.6603 11.7393 13.5402 11.6995 13.4175 11.6698C13.3005 11.6228 13.3655 11.6568 13.3055 11.6058C13.5055 11.0458 14.4405 11.0058 15.1195 11.0058C15.7035 10.9988 16.9515 10.9478 17.2195 11.3488C17.6635 12.0088 16.8395 15.8268 17.8925 15.4278C18.4605 15.2128 19.5305 13.3278 19.8775 12.5278C20.3985 11.3278 20.1845 11.4418 21.2395 11.4348C22.0315 11.3912 22.8254 11.3912 23.6175 11.4348C24.3885 11.5838 23.7905 12.5138 23.4985 12.9858C23.2985 13.3148 22.4585 14.5128 22.2315 14.7608L21.4665 15.8368C21.3891 15.9712 21.3619 16.1286 21.3898 16.2812C21.4176 16.4337 21.4986 16.5714 21.6185 16.6698Z" fill="white"/>
</svg>
