<svg width="38" height="44" viewBox="0 0 38 44" fill="none" xmlns="http://www.w3.org/2000/svg">
<path d="M30.2698 33.8534C30.2698 33.9532 30.1671 33.9532 30.1671 34.053C29.7563 35.5503 28.7293 36.5485 27.0862 36.6484C25.3403 36.848 23.9026 36.2491 22.9783 34.7518C21.746 32.6556 20.6163 30.5594 19.384 28.4631C19.1786 28.0639 18.9732 27.6646 18.6651 27.2653C18.1516 26.6664 17.6381 26.6664 17.1246 27.1655C16.8165 27.4649 16.5085 27.964 16.2004 28.3633C15.7896 28.9622 15.3788 29.661 14.968 30.2599C13.7356 31.9568 11.6817 32.0567 10.244 30.4595C10.244 30.4595 10.1413 30.3597 10.0386 30.3597C9.93588 30.4595 9.83318 30.6592 9.73049 30.759C7.26577 34.9514 4.49297 39.044 1.82286 43.1367C1.30938 43.8354 0.898594 44.035 0.385112 43.7356C-0.128371 43.4361 -0.128371 42.937 0.385112 42.2383C5.21184 34.9514 10.0386 27.5648 14.8653 20.1781C15.1734 19.7788 15.4815 19.4793 16.0977 19.5792C18.1516 19.5792 20.2055 19.5792 22.2595 19.5792C22.6702 19.5792 23.081 19.679 23.2864 20.0783C26.1619 24.4703 29.0374 28.8624 31.8102 33.2545C33.7615 36.3489 35.8154 39.3435 37.7666 42.4379C37.8693 42.6376 38.0747 43.0368 37.972 43.2365C37.8693 43.5359 37.5612 43.8354 37.3558 43.9352C36.945 44.1349 36.637 43.8354 36.4316 43.5359C35.61 42.2383 34.7884 41.0404 33.9669 39.7428C32.8372 37.946 31.6048 36.1493 30.4752 34.3525C30.4752 34.1529 30.3725 33.9532 30.2698 33.8534ZM19.0759 21.1763C18.2543 21.1763 17.4327 21.1763 16.6112 21.1763C16.2004 21.1763 15.995 21.2761 15.7896 21.5756C14.4545 23.572 13.1195 25.6682 11.7844 27.6646C11.579 27.964 11.4763 28.2635 11.3736 28.563C11.1682 29.1619 11.2709 29.4613 11.9898 29.8606C12.5033 30.1601 12.8114 30.0603 13.2222 29.661C13.633 29.1619 13.941 28.6628 14.2491 28.1637C14.7626 27.4649 15.1734 26.6664 15.7896 26.0675C16.0977 25.6682 16.7138 25.4685 17.1246 25.3687C18.357 25.1691 19.692 25.768 20.3082 26.9658C20.719 27.6646 21.0271 28.3633 21.4379 29.0621C22.3622 30.759 23.3891 32.4559 24.4161 34.1529C25.0323 35.1511 26.1619 35.4505 27.1889 35.0512C28.2158 34.652 28.7293 33.6538 28.5239 32.5557C28.3185 31.6574 28.0105 30.759 27.5997 29.9604C25.8538 27.0657 24.0053 24.3705 22.1568 21.4757C22.0541 21.2761 21.746 21.1763 21.5406 21.1763C20.719 21.1763 19.8974 21.1763 19.0759 21.1763Z" fill="white"/>
<path d="M30.9886 3.20883C31.9129 3.10901 32.7344 2.90937 33.556 2.90937C35.4046 2.90937 37.0477 4.50649 37.0477 6.30325C37.0477 8.10001 35.6099 9.49749 33.6587 9.49749C32.1183 9.49749 30.5778 9.69713 29.0374 10.296C25.6484 11.5937 23.4918 13.9894 22.4648 17.3833C22.2594 18.082 21.7459 18.3815 21.1297 18.082C20.719 17.8824 20.6163 17.4831 20.8217 17.0838C22.2594 12.3923 25.3403 9.39767 30.2697 8.29965C31.2967 8.10001 32.4264 8.00019 33.556 8.00019C34.6857 7.90037 35.3019 7.50109 35.3019 6.60271C35.3019 5.40487 34.6857 4.70613 33.556 4.60631C33.1452 4.60631 32.7344 4.60631 32.4264 4.60631C31.9129 4.70613 31.5021 4.80595 31.3994 5.30505C31.2967 5.70433 30.9886 5.90397 30.5778 5.80415C30.167 5.80415 29.9616 5.60451 29.8589 5.20523C29.8589 5.00559 29.7562 4.90577 29.7562 4.70613C29.1401 2.70973 27.3942 1.51189 25.0322 1.71153C22.7729 1.81135 21.6432 2.80955 21.4378 5.00559C21.3351 5.80415 21.0271 6.00379 20.2055 5.90397C19.692 5.80415 19.1785 5.80415 18.665 5.80415C17.7408 5.90397 17.2273 6.50289 17.1246 7.40127C16.9192 8.10001 17.4327 8.79875 18.2542 8.99839C18.5623 9.09821 18.8704 9.29785 19.0758 9.49749C19.1785 9.69713 19.0758 10.0964 18.9731 10.296C18.7677 10.5955 18.3569 10.5955 17.9462 10.4957C16.7138 9.99659 15.7895 9.19803 15.5841 7.90037C15.3787 6.70253 15.8922 5.70433 16.8165 4.90577C17.6381 4.20703 18.5623 4.00739 19.5893 4.10721C19.8974 4.10721 20.1028 4.00739 20.1028 3.70793C20.6163 1.41207 22.3621 0.114416 24.8268 0.0145959C26.6754 -0.085224 28.4212 0.314056 29.7562 1.61171C30.2697 2.11081 30.5778 2.70973 30.9886 3.20883Z" fill="white"/>
<path d="M4.90374 7.90039C7.98463 8.00021 10.9628 8.69895 13.4275 10.6953C15.4815 12.3923 16.8165 14.4885 17.33 17.0838C17.4327 17.5829 17.1246 18.082 16.7138 18.1818C16.2003 18.2817 15.7896 17.9822 15.6869 17.4831C14.7626 13.2907 11.9898 10.895 7.77924 9.89679C6.75228 9.69715 5.72531 9.69715 4.69835 9.59733C4.49295 9.59733 4.18486 9.59733 3.97947 9.49751C3.56869 9.29787 3.36329 8.99841 3.46599 8.59913C3.46599 8.19985 3.77408 7.90039 4.18487 7.90039C4.39026 7.90039 4.59565 7.90039 4.90374 7.90039Z" fill="white"/>
<path d="M10.9628 6.60271C10.3466 6.60271 9.73047 5.90397 9.73047 5.40487C9.73047 4.80595 10.3466 4.20703 10.9628 4.20703C11.579 4.20703 12.2979 4.90577 12.2979 5.40487C12.1952 5.90397 11.579 6.60271 10.9628 6.60271ZM11.579 5.30505C11.3736 5.10541 11.1682 4.90577 11.0655 4.90577C10.9628 4.90577 10.6547 5.10541 10.6547 5.30505C10.6547 5.40487 10.8601 5.70433 11.0655 5.70433C11.1682 5.70433 11.2709 5.50469 11.579 5.30505Z" fill="white"/>
<path d="M30.9887 12.2923C31.6049 12.2923 32.2211 12.991 32.2211 13.4901C32.2211 14.0891 31.5022 14.688 30.9887 14.688C30.3725 14.688 29.7563 13.9892 29.7563 13.4901C29.7563 12.8912 30.3725 12.1925 30.9887 12.2923ZM31.5022 13.4901C31.2968 13.2905 31.0914 13.0909 30.9887 13.0909C30.886 13.0909 30.5779 13.2905 30.5779 13.4901C30.5779 13.59 30.7833 13.8894 30.9887 13.8894C31.0914 13.8894 31.2968 13.6898 31.5022 13.4901Z" fill="white"/>
<path d="M5.51989 12.9913C5.51989 13.5902 4.80102 14.1891 4.28753 14.1891C3.67135 14.1891 3.05518 13.4904 3.05518 12.9913C3.05518 12.3924 3.77405 11.7935 4.28753 11.7935C4.90371 11.7935 5.51989 12.3924 5.51989 12.9913ZM4.80102 12.9913C4.59562 12.7917 4.39023 12.592 4.28753 12.592C4.08214 12.592 3.97944 12.7917 3.87675 12.9913C3.97944 13.0911 4.18484 13.3906 4.28753 13.3906C4.39023 13.3906 4.59562 13.1909 4.80102 12.9913Z" fill="white"/>
</svg>
