<svg width="18" height="32" viewBox="0 0 18 32" fill="none" xmlns="http://www.w3.org/2000/svg">
<path d="M1.5 31.9688C1.20833 31.9688 0.947917 31.8646 0.71875 31.6562C0.510417 31.4479 0.40625 31.1979 0.40625 30.9062C0.40625 30.6146 0.510417 30.3646 0.71875 30.1562L15 15.875L0.9375 1.84375C0.8125 1.69792 0.71875 1.53125 0.65625 1.34375C0.614583 1.15625 0.614583 0.979167 0.65625 0.8125C0.71875 0.625 0.8125 0.458333 0.9375 0.3125C1.14583 0.104167 1.39583 0 1.6875 0C2 0 2.26042 0.104167 2.46875 0.3125L17.25 15.125C17.3542 15.2292 17.4271 15.3542 17.4688 15.5C17.5312 15.625 17.5625 15.7604 17.5625 15.9062C17.5625 16.0312 17.5312 16.1562 17.4688 16.2812C17.4271 16.4062 17.3542 16.5208 17.25 16.625L2.25 31.6562C2.14583 31.7604 2.02083 31.8333 1.875 31.875C1.75 31.9375 1.625 31.9688 1.5 31.9688Z" fill="#A0A0A0"/>
</svg>
