<svg width="76" height="64" viewBox="0 0 76 64" fill="none" xmlns="http://www.w3.org/2000/svg">
<g clip-path="url(#clip0)">
<path d="M75.999 29.8792V59.9992C75.9998 60.7011 75.8158 61.3909 75.4656 61.9992C75.1269 62.6181 74.6179 63.1271 73.999 63.4658C73.3906 63.816 72.7009 64 71.999 63.9992H15.999C15.4762 64.0046 14.9576 63.9047 14.4743 63.7054C13.9909 63.5061 13.5527 63.2115 13.1856 62.8392C12.8027 62.4732 12.4995 62.032 12.2953 61.5433C12.0911 61.0545 11.9902 60.5288 11.999 59.9992V30.0658C11.9678 29.3885 12.1198 28.7152 12.4389 28.1169C12.758 27.5186 13.2324 27.0174 13.8123 26.6658L23.999 16.5058V9.93251C24.0153 9.42633 24.231 8.9471 24.599 8.59918C24.7776 8.40703 24.9944 8.25438 25.2355 8.15105C25.4766 8.04771 25.7367 7.99598 25.999 7.99918H32.6656L39.919 1.75918C40.3383 1.28643 40.8397 0.893441 41.399 0.59918C41.9608 0.323507 42.5646 0.143267 43.1856 0.065847C43.8088 -0.0274828 44.4425 -0.0274828 45.0656 0.065847C45.6828 0.141485 46.2825 0.32185 46.839 0.59918C47.4109 0.869788 47.9301 1.24 48.3723 1.69251L55.6923 7.99918H61.999C62.25 8.00507 62.4974 8.0612 62.7264 8.16425C62.9554 8.2673 63.1614 8.41519 63.3323 8.59918C63.7003 8.9471 63.916 9.42633 63.9323 9.93251V16.3725L74.3723 26.8792L74.7456 27.2525C74.8596 27.3669 74.9623 27.4919 75.0523 27.6258V27.6925C75.1733 27.8138 75.2806 27.9479 75.3723 28.0925C75.4514 28.2443 75.5226 28.4001 75.5856 28.5592C75.651 28.724 75.7045 28.8933 75.7456 29.0658C75.7653 29.2297 75.7653 29.3953 75.7456 29.5592C75.8485 29.6498 75.9343 29.7582 75.999 29.8792ZM15.999 34.0658V57.2525L28.8123 45.3325L15.999 34.0658ZM18.3723 27.6925L16.6923 29.3325L23.999 35.7458V22.1858L18.5056 27.6925H18.3723ZM18.879 59.9992H69.3323L45.3323 38.2525C44.9095 37.9134 44.3808 37.7341 43.839 37.7458C43.2688 37.7402 42.7154 37.9388 42.279 38.3058L33.6523 46.3058C33.6179 46.3842 33.5778 46.46 33.5323 46.5325L33.3323 46.6658C33.1383 46.8889 32.9085 47.0782 32.6523 47.2258L18.879 59.9992ZM27.999 11.9992V39.3058L31.7456 42.6658L39.7456 35.2925C39.9793 35.05 40.2437 34.8393 40.5323 34.6658C40.825 34.5003 41.1278 34.3533 41.439 34.2258C41.7414 34.0953 42.0534 33.9883 42.3723 33.9058C42.6912 33.8255 43.0172 33.7764 43.3456 33.7592C43.6651 33.7325 43.9862 33.7325 44.3056 33.7592C44.6344 33.7733 44.9607 33.8225 45.279 33.9058L46.1856 34.1858C46.4912 34.296 46.7858 34.4344 47.0656 34.5992C47.3549 34.7579 47.6274 34.9456 47.879 35.1592L56.439 42.9058L59.999 39.7458V11.9992H27.999ZM38.6656 7.99918H49.5323L45.5323 4.57251C45.3276 4.4015 45.0984 4.26217 44.8523 4.15918C44.6206 4.05878 44.3715 4.00444 44.119 3.99918C43.5868 3.97039 43.0646 4.15242 42.6656 4.50585L38.6656 7.99918ZM71.999 57.0658V34.4392L59.3723 45.6259L71.999 57.0658ZM63.999 21.9992V36.1858L71.5056 29.5192L68.0656 26.0792L63.999 21.9992Z" fill="#BEB400"/>
<path d="M53.8933 17.9732C53.5839 17.4281 53.241 16.9026 52.8666 16.3999L42.5466 26.6666L35.4133 19.5332L34.08 20.8666L42.5466 29.3332L53.8933 17.9732Z" fill="#BEB400"/>
</g>
<circle cx="12" cy="12" r="11" fill="#F4F4F4" stroke="#BEB400" stroke-width="2"/>
<path d="M14.7727 13.504C14.7727 13.952 14.6927 14.34 14.5327 14.668C14.3807 14.988 14.1687 15.256 13.8967 15.472C13.6327 15.68 13.3167 15.836 12.9487 15.94C12.5807 16.044 12.1847 16.096 11.7607 16.096C11.3127 16.096 10.9007 16.068 10.5247 16.012C10.1567 15.956 9.8007 15.884 9.4567 15.796C9.3927 15.78 9.3367 15.756 9.2887 15.724C9.2487 15.684 9.2287 15.632 9.2287 15.568V14.824C9.2287 14.76 9.2487 14.708 9.2887 14.668C9.3287 14.628 9.3807 14.608 9.4447 14.608H9.4687C9.9487 14.656 10.3767 14.696 10.7527 14.728C11.1367 14.76 11.4727 14.776 11.7607 14.776C12.2487 14.776 12.5927 14.672 12.7927 14.464C13.0007 14.248 13.1047 13.928 13.1047 13.504V13.252C13.1047 13.092 13.0887 12.94 13.0567 12.796C13.0327 12.652 12.9767 12.524 12.8887 12.412C12.8087 12.3 12.6967 12.212 12.5527 12.148C12.4087 12.076 12.2247 12.04 12.0007 12.04H9.8767C9.7247 12.04 9.6487 11.964 9.6487 11.812V11.056C9.6487 10.904 9.7247 10.828 9.8767 10.828H12.0007C12.2247 10.828 12.4087 10.796 12.5527 10.732C12.6967 10.668 12.8087 10.584 12.8887 10.48C12.9767 10.368 13.0327 10.244 13.0567 10.108C13.0887 9.964 13.1047 9.812 13.1047 9.652V9.46C13.1047 9.308 13.0847 9.164 13.0447 9.028C13.0127 8.884 12.9447 8.76 12.8407 8.656C12.7447 8.552 12.6087 8.468 12.4327 8.404C12.2567 8.34 12.0327 8.308 11.7607 8.308C11.5447 8.308 11.3527 8.312 11.1847 8.32C11.0247 8.328 10.8607 8.34 10.6927 8.356C10.5247 8.364 10.3447 8.38 10.1527 8.404C9.9607 8.428 9.7327 8.452 9.4687 8.476H9.4447C9.3807 8.476 9.3287 8.456 9.2887 8.416C9.2487 8.376 9.2287 8.324 9.2287 8.26V7.516C9.2287 7.452 9.2487 7.404 9.2887 7.372C9.3367 7.332 9.3927 7.304 9.4567 7.288C9.8007 7.2 10.1567 7.128 10.5247 7.072C10.9007 7.016 11.3127 6.988 11.7607 6.988C12.1927 6.988 12.5927 7.032 12.9607 7.12C13.3287 7.208 13.6447 7.352 13.9087 7.552C14.1807 7.744 14.3927 7.996 14.5447 8.308C14.6967 8.62 14.7727 9.004 14.7727 9.46V9.652C14.7727 10.076 14.6807 10.436 14.4967 10.732C14.3207 11.02 14.0687 11.252 13.7407 11.428C14.0767 11.612 14.3327 11.868 14.5087 12.196C14.6847 12.516 14.7727 12.868 14.7727 13.252V13.504Z" fill="#BEB400"/>
<defs>
<clipPath id="clip0">
<rect width="64" height="64" fill="white" transform="translate(12)"/>
</clipPath>
</defs>
</svg>
