<svg width="76" height="64" viewBox="0 0 76 64" fill="none" xmlns="http://www.w3.org/2000/svg">
<g clip-path="url(#clip0)">
<path d="M73 11.8133C73.9037 12.3435 74.6565 13.0963 75.1867 14C75.7276 14.9065 76.0089 15.9443 76 17V47C76.0053 47.7894 75.8538 48.572 75.5541 49.3023C75.2545 50.0327 74.8127 50.6962 74.2545 51.2545C73.6963 51.8127 73.0327 52.2544 72.3024 52.5541C71.572 52.8537 70.7894 53.0053 70 53H18C17.2096 53.0126 16.425 52.8642 15.6938 52.5639C14.9625 52.2636 14.3001 51.8177 13.7467 51.2533C13.1822 50.6999 12.7363 50.0374 12.436 49.3062C12.1358 48.575 11.9874 47.7903 12 47V17C11.9911 15.9443 12.2724 14.9065 12.8133 14C13.3435 13.0963 14.0963 12.3435 15 11.8133C15.9066 11.2724 16.9444 10.991 18 11H70C71.0556 10.991 72.0934 11.2724 73 11.8133ZM16.6 15.6C16.4079 15.7785 16.2552 15.9954 16.1519 16.2365C16.0485 16.4776 15.9968 16.7377 16 17V21H72V17C71.9865 16.4738 71.7715 15.9729 71.3993 15.6007C71.0271 15.2285 70.5262 15.0135 70 15H18C17.7377 14.9968 17.4776 15.0485 17.2365 15.1518C16.9954 15.2552 16.7786 15.4078 16.6 15.6ZM71.4 48.4C71.584 48.2291 71.7319 48.023 71.8349 47.794C71.938 47.565 71.9941 47.3177 72 47.0666V29H16V47C16.0059 47.251 16.062 47.4983 16.1651 47.7273C16.2681 47.9564 16.416 48.1624 16.6 48.3333C16.7709 48.5173 16.977 48.6652 17.206 48.7682C17.435 48.8713 17.6823 48.9274 17.9333 48.9333H69.9333C70.2017 48.9546 70.4716 48.918 70.7246 48.826C70.9777 48.734 71.208 48.5887 71.4 48.4Z" fill="#BEB400"/>
</g>
<circle cx="12" cy="12" r="11" fill="#F4F4F4" stroke="#BEB400" stroke-width="2"/>
<path d="M14.8567 9.184C14.8567 9.688 14.7287 10.12 14.4727 10.48C14.2247 10.832 13.8527 11.176 13.3567 11.512L12.2767 12.232C11.7087 12.608 11.2807 12.972 10.9927 13.324C10.7127 13.668 10.5727 14.088 10.5727 14.584V14.632H14.5207C14.5847 14.632 14.6407 14.652 14.6887 14.692C14.7367 14.732 14.7607 14.784 14.7607 14.848V15.76C14.7607 15.824 14.7367 15.88 14.6887 15.928C14.6407 15.976 14.5847 16 14.5207 16H9.4327C9.3687 16 9.3127 15.976 9.2647 15.928C9.2167 15.88 9.1927 15.824 9.1927 15.76V14.584C9.1927 14.256 9.2407 13.94 9.3367 13.636C9.4327 13.324 9.5647 13.036 9.7327 12.772C9.9007 12.5 10.0927 12.252 10.3087 12.028C10.5327 11.804 10.7687 11.608 11.0167 11.44L12.2047 10.648C12.4367 10.496 12.6247 10.364 12.7687 10.252C12.9127 10.14 13.0247 10.036 13.1047 9.94C13.1847 9.836 13.2367 9.728 13.2607 9.616C13.2927 9.496 13.3087 9.352 13.3087 9.184C13.3087 8.856 13.2007 8.628 12.9847 8.5C12.7687 8.364 12.4087 8.296 11.9047 8.296C11.7287 8.296 11.5367 8.304 11.3287 8.32C11.1287 8.328 10.9207 8.34 10.7047 8.356C10.4967 8.372 10.2887 8.392 10.0807 8.416C9.8727 8.432 9.6807 8.452 9.5047 8.476H9.4807C9.4167 8.476 9.3647 8.452 9.3247 8.404C9.2847 8.356 9.2647 8.3 9.2647 8.236V7.516C9.2647 7.452 9.2847 7.404 9.3247 7.372C9.3727 7.332 9.4287 7.304 9.4927 7.288C9.6447 7.248 9.8207 7.212 10.0207 7.18C10.2207 7.14 10.4247 7.108 10.6327 7.084C10.8487 7.052 11.0647 7.028 11.2807 7.012C11.5047 6.996 11.7127 6.988 11.9047 6.988C12.9527 6.988 13.7047 7.168 14.1607 7.528C14.6247 7.888 14.8567 8.44 14.8567 9.184Z" fill="#BEB400"/>
<defs>
<clipPath id="clip0">
<rect width="64" height="64" fill="white" transform="translate(12)"/>
</clipPath>
</defs>
</svg>
