<svg width="76" height="64" viewBox="0 0 76 64" fill="none" xmlns="http://www.w3.org/2000/svg">
<path d="M74.8139 7.16021C75.1968 7.52615 75.5 7.96736 75.7042 8.45611C75.9084 8.94486 76.0093 9.47058 76.0005 10.0002V44.0002C76.0005 45.0611 75.5791 46.0785 74.829 46.8286C74.0788 47.5788 73.0614 48.0002 72.0005 48.0002H46.0005V54.0002H56.0005C56.531 54.0002 57.0397 54.2109 57.4147 54.586C57.7898 54.9611 58.0005 55.4698 58.0005 56.0002C58.0005 56.5306 57.7898 57.0394 57.4147 57.4144C57.0397 57.7895 56.531 58.0002 56.0005 58.0002H32.0005C31.4701 58.0002 30.9614 57.7895 30.5863 57.4144C30.2112 57.0394 30.0005 56.5306 30.0005 56.0002C30.0005 55.4698 30.2112 54.9611 30.5863 54.586C30.9614 54.2109 31.4701 54.0002 32.0005 54.0002H42.0005V48.0002H16.0005C15.4756 48.0037 14.9554 47.9003 14.4718 47.6963C13.9881 47.4923 13.551 47.192 13.1872 46.8135C12.8088 46.4497 12.5084 46.0126 12.3044 45.529C12.1004 45.0453 11.997 44.5251 12.0005 44.0002V10.0002C11.9917 9.47058 12.0926 8.94486 12.2969 8.45611C12.5011 7.96736 12.8042 7.52615 13.1872 7.16021C13.5542 6.78787 13.9925 6.49326 14.4758 6.29396C14.9592 6.09466 15.4777 5.99476 16.0005 6.00021H72.0005C72.5233 5.99476 73.0419 6.09466 73.5252 6.29396C74.0086 6.49326 74.4468 6.78787 74.8139 7.16021ZM72.0005 10.0002H16.0005V44.0002H72.0005V10.0002Z" fill="#BEB400"/>
<path d="M40.4672 28.1735V30.2401H48.8806V32.2135H40.4672V37.5468H37.6806V32.2135H36.2539V30.2401H37.6806V28.1735H36.2539V25.7735H37.6806V16.4401H44.2672C45.7124 16.3725 47.1579 16.5667 48.5339 17.0135C49.5148 17.3914 50.3377 18.0921 50.8672 19.0001C51.4528 19.9543 51.7577 21.054 51.7472 22.1735C51.7844 23.1767 51.5641 24.1728 51.1072 25.0668C50.6856 25.8341 50.0753 26.4812 49.3339 26.9468C48.5827 27.4161 47.7508 27.7416 46.8806 27.9068C45.9399 28.0845 44.9846 28.1738 44.0272 28.1735H40.4672ZM44.0806 25.7735C44.6975 25.7755 45.3133 25.722 45.9206 25.6135C46.4614 25.5288 46.9815 25.3434 47.4539 25.0668C47.8864 24.8006 48.2442 24.429 48.4939 23.9868C48.7705 23.4426 48.9036 22.8368 48.8806 22.2268C48.8949 21.6819 48.7758 21.1419 48.5339 20.6535C48.3019 20.2312 47.9728 19.8702 47.5739 19.6001C47.1385 19.3156 46.6551 19.1123 46.1472 19.0001C45.5646 18.8738 44.97 18.8112 44.3739 18.8135H40.4672V25.7735H44.0806Z" fill="#BEB400"/>
<circle cx="12" cy="12" r="11" fill="#F4F4F4" stroke="#BEB400" stroke-width="2"/>
<path d="M9.7687 16C9.7047 16 9.6487 15.976 9.6007 15.928C9.5527 15.88 9.5287 15.824 9.5287 15.76V14.848C9.5287 14.784 9.5527 14.732 9.6007 14.692C9.6487 14.652 9.7047 14.632 9.7687 14.632H11.3767V8.728L9.8047 9.208C9.7647 9.224 9.7167 9.232 9.6607 9.232C9.5727 9.232 9.5287 9.184 9.5287 9.088V7.96C9.5287 7.896 9.5567 7.852 9.6127 7.828L11.7367 7.132C11.7767 7.116 11.8167 7.104 11.8567 7.096C11.8967 7.088 11.9487 7.084 12.0127 7.084H12.8047C12.9567 7.084 13.0327 7.16 13.0327 7.312V14.632H14.6407C14.7047 14.632 14.7607 14.652 14.8087 14.692C14.8567 14.732 14.8807 14.784 14.8807 14.848V15.76C14.8807 15.824 14.8567 15.88 14.8087 15.928C14.7607 15.976 14.7047 16 14.6407 16H9.7687Z" fill="#BEB400"/>
</svg>
