<svg width="56" height="64" viewBox="0 0 56 64" fill="none" xmlns="http://www.w3.org/2000/svg">
<path d="M28.1719 64C23.9995 63.8886 19.9975 63.0807 16.3361 61.3814C12.3057 59.515 8.81455 56.8965 6.06138 53.2193C3.59204 49.9322 1.9742 46.4222 0.867258 42.5223C-0.154536 38.873 -0.268069 35.2237 0.498277 31.6859C1.49169 27.3124 3.10953 23.1338 6.28844 19.6238C8.81455 16.8381 11.5961 14.4703 15.0021 12.9103C16.7902 12.0746 18.6635 11.4617 20.48 10.6539C20.8206 10.5146 21.1896 9.95747 21.1612 9.59533C21.1328 7.78463 21.3599 6.08535 22.3533 4.44179C23.9144 1.87895 26.2134 0.513958 29.1085 0.12396C31.294 -0.15461 33.5079 -0.0431818 35.438 1.29395C37.6235 2.79823 38.8439 4.85965 38.8439 7.53392C38.8439 8.09105 38.8156 8.64819 38.7304 9.20533C38.475 11.2946 38.5317 11.1553 40.5469 12.1025C43.4136 13.4396 46.0533 15.2224 48.0969 17.646C49.7715 19.596 51.3325 21.6574 52.7517 23.7745C53.5181 24.8888 53.9722 26.2538 54.3979 27.5631C55.7603 31.7416 56.4415 36.0595 55.6752 40.4051C54.994 44.138 53.9438 47.8151 51.7583 51.0187C49.3457 54.5843 46.3655 57.7043 42.6189 59.9607C41.4552 60.6572 40.1496 61.2422 38.8723 61.66C36.5449 62.44 34.1607 63.1643 31.7765 63.7493C30.6128 64.0279 29.364 63.9443 28.1719 64ZM3.56366 36.5052C3.70558 36.533 3.84749 36.5609 4.01779 36.5887C3.76234 40.4609 4.92605 44.0544 6.71419 47.3972C7.7076 49.2637 9.01323 51.0465 10.5175 52.5508C12.3057 54.3336 14.3209 55.8936 16.4496 57.2586C18.919 58.8465 21.814 59.6264 24.7091 60.0164C30.4709 60.7964 35.8637 59.7936 40.8308 56.6179C43.3853 55.0022 45.6559 53.0522 47.4724 50.7679C49.6296 48.038 51.0203 44.7787 51.7299 41.3801C52.6949 36.7002 52.184 32.0759 50.4527 27.5909C49.9985 26.3931 49.4593 25.1952 48.7213 24.1645C47.0467 21.7967 45.1734 19.6238 42.7892 17.841C40.6889 16.281 38.5601 14.916 36.0056 14.3032C34.3594 13.9132 32.6848 13.746 31.0102 13.4674C28.995 13.1332 27.6042 11.8796 26.9514 10.1246C26.3553 8.56462 26.7527 7.06035 28.3706 6.0575C29.2504 5.50036 31.2373 5.16607 32.1171 5.69535C33.0822 6.30821 33.5647 7.11606 33.4228 8.34177C33.2525 9.53962 32.401 9.37247 31.6346 9.40033C30.6696 9.42819 31.067 8.81534 31.067 8.28605C31.0953 7.84034 30.8967 7.31106 30.6412 6.94892C30.4993 6.78178 29.8749 6.80963 29.591 6.94892C28.3989 7.56177 28.1151 9.37247 28.995 10.3753C30.2155 11.7403 31.9184 12.2139 33.3944 11.5453C34.9554 10.8489 36.0908 9.03819 35.7218 7.39463C35.3528 5.6675 34.5013 4.41393 32.5996 3.57822C29.8181 2.32466 26.6392 3.99608 25.5039 5.75107C24.1982 7.64534 24.4253 9.81819 25.2768 11.9075C25.5039 12.4367 25.8161 12.9382 26.0999 13.4396C25.4755 13.6067 24.8227 13.7739 24.1982 13.941C24.1415 13.941 24.1131 13.941 24.0563 13.9689C19.1744 14.4146 15.0305 16.281 11.3974 19.5403C8.64425 22.0474 6.68581 25.0002 5.49372 28.3709C4.55707 30.9616 4.18809 33.7752 3.56366 36.5052Z" fill="#BEB400"/>
<path d="M35.4377 37.8424C33.3657 37.8424 31.2654 35.781 31.1802 33.6638C31.1235 31.881 33.7063 29.3739 35.4661 29.4853C37.7651 29.6246 39.6668 31.6303 39.6952 33.8031C39.7236 35.7531 37.4529 37.9817 35.4377 37.8424Z" fill="#BEB400"/>
<path d="M24.8507 33.7474C25.0778 35.6138 22.4665 38.0095 20.5081 37.8702C18.5496 37.7031 16.3074 35.6138 16.3074 33.6917C16.3074 31.8252 18.8335 29.4017 20.6784 29.4853C22.7787 29.5967 24.8791 31.7695 24.8507 33.7474Z" fill="#BEB400"/>
<path d="M27.9729 48.54C26.5254 48.54 25.0495 48.5122 23.6019 48.54C22.495 48.5679 22.2679 47.8713 22.2395 47.0076C22.2111 46.116 22.722 45.7817 23.5735 45.7817C26.4402 45.7817 29.3353 45.7538 32.202 45.7817C33.1387 45.7817 34.1605 46.0882 34.0753 47.1469C34.0186 48.15 33.1671 48.5958 32.0601 48.54C30.6977 48.4843 29.3353 48.54 27.9729 48.54Z" fill="#BEB400"/>
<path d="M11.0566 27.7587C10.0348 27.6472 9.38196 27.285 9.43873 26.1148C9.4955 24.9446 10.3754 24.6102 11.1417 24.7774C11.7945 24.9167 12.6744 25.6412 12.7596 26.2263C12.9015 27.2015 12.0784 27.7308 11.0566 27.7587Z" fill="#BEB400"/>
<path d="M36.7717 21.5467C35.4661 21.3795 34.643 21.2123 34.6714 20.07C34.6997 19.0948 35.1539 18.5097 36.1757 18.4539C37.0272 18.3982 38.2477 19.3734 37.9922 20.0978C37.7935 20.6829 37.1123 21.1566 36.7717 21.5467Z" fill="#BEB400"/>
<path d="M17.386 20.7942C17.386 19.5404 18.2091 19.1504 19.089 19.3454C19.7134 19.4847 20.6784 20.1534 20.6784 20.5992C20.6784 21.3515 20.1391 22.2709 19.089 22.2709C18.0388 22.2709 17.4428 21.6858 17.386 20.7942Z" fill="#BEB400"/>
<path d="M17.1021 50.6848C16.4493 51.1584 15.8249 51.9943 15.1721 51.9943C14.6044 51.9943 13.6961 51.1306 13.5542 50.5176C13.3271 49.626 14.1503 48.7901 15.0869 48.8737C15.7681 48.9294 16.4209 49.626 17.0737 50.0439C17.1021 50.239 17.1021 50.4619 17.1021 50.6848Z" fill="#BEB400"/>
<path d="M28.569 22.9111C28.4555 24.2485 28.2 25.0286 27.0647 24.9729C26.128 24.945 25.5036 24.4714 25.4185 23.4962C25.3617 22.8275 26.5538 21.4901 27.1498 21.713C27.7743 21.9638 28.2284 22.6325 28.569 22.9111Z" fill="#BEB400"/>
<path d="M43.5553 29.5416C43.1296 29.0122 42.4484 28.5107 42.3632 27.9256C42.2497 27.1454 42.5335 26.2817 43.7256 26.2538C44.9177 26.226 45.3435 26.839 45.4002 27.842C45.457 28.8729 44.7474 29.2073 43.5553 29.5416Z" fill="#BEB400"/>
<path d="M6.82739 34.8063C7.6505 34.0819 8.10464 33.3296 8.6723 33.2181C9.69409 33.051 10.4321 33.7197 10.3753 34.8063C10.3469 35.7815 9.69409 36.5059 8.72907 36.3387C8.13302 36.283 7.67889 35.5307 6.82739 34.8063Z" fill="#BEB400"/>
<path d="M47.5006 40.9071C45.8544 40.9071 45.4002 40.322 45.4286 39.2632C45.457 38.1209 46.2517 37.9537 47.16 37.9258C48.2386 37.8701 48.6359 38.7617 48.5508 39.4304C48.4656 40.0434 47.7277 40.5727 47.5006 40.9071Z" fill="#BEB400"/>
<path d="M27.2633 55.3924C26.724 55.8103 26.2131 56.4512 25.5887 56.5626C24.7088 56.7298 23.9709 56.3397 23.9709 55.1974C23.9425 54.1107 24.5101 53.7207 25.4752 53.6649C26.5253 53.6092 26.9227 54.1664 27.2633 55.3924Z" fill="#BEB400"/>
<path d="M41.4549 44.9182C41.4833 46.0326 40.6885 46.2277 39.7803 46.3113C38.8436 46.367 38.3895 45.9491 38.3611 45.0296C38.3327 44.0544 38.6449 43.3857 39.7519 43.3857C40.8021 43.33 41.4833 43.7479 41.4549 44.9182Z" fill="#BEB400"/>
<path d="M14.6612 44.1944C13.3556 43.9436 12.7879 43.5257 12.8447 42.5226C12.9014 41.631 13.242 40.8509 14.349 40.9066C15.4559 40.9345 16.0236 41.6868 15.8817 42.6341C15.7965 43.1913 15.087 43.665 14.6612 44.1944Z" fill="#BEB400"/>
<path d="M37.3961 55.0027C36.204 55.0863 35.9485 54.4176 35.8634 53.4703C35.7782 52.3558 36.4594 52.1608 37.3393 52.1329C38.276 52.105 38.9288 52.523 38.872 53.4981C38.872 54.3619 38.5314 55.1142 37.3961 55.0027Z" fill="#BEB400"/>
</svg>
